<?xml version="1.0" encoding="UTF-8"?>
<svg width="120px" height="132px" viewBox="0 0 120 132" version="1.1" xmlns="http://www.w3.org/2000/svg" xmlns:xlink="http://www.w3.org/1999/xlink">
    <!-- Generator: Sketch 54 (76480) - https://sketchapp.com -->
    <title>GoodUp_Avater-LightColouredBackground</title>
    <desc>Created with Sketch.</desc>
    <g id="Page-1" stroke="none" stroke-width="1" fill="none" fill-rule="evenodd">
        <g id="GoodUp_Avater-LightColouredBackground">
            <path d="M38.476,53.209 C46.693,53.209 52.071,48.577 52.071,40.062 C52.071,31.397 46.693,26.466 38.476,26.466 C30.11,26.466 24.732,31.546 24.732,40.062 C24.732,48.727 30.558,53.209 38.476,53.209 Z M19.652,98.476 C15.618,106.096 20.548,113.566 38.476,113.566 C64.771,113.566 64.023,95.34 50.278,95.34 C42.211,95.34 34.143,98.775 23.537,98.775 C22.192,98.775 20.847,98.626 19.652,98.476 Z M52.37,12.274 L61.633,1.667 L73.884,13.17 L65.218,21.835 C69.401,26.915 71.792,33.189 71.792,40.062 C71.792,58.289 56.853,70.39 38.476,70.39 C34.143,70.39 30.408,69.942 26.823,69.045 C20.398,74.423 19.802,80.997 29.662,80.997 C36.533,80.997 41.016,78.158 51.026,78.158 C89.122,78.158 88.824,131.344 38.476,131.344 C0.679,131.344 -7.091,106.843 5.758,89.961 C0.379,81.595 2.621,68.747 12.63,60.977 C7.7,55.749 5.011,48.577 5.011,40.062 C5.011,21.835 20.1,9.585 38.476,9.585 C43.406,9.585 48.186,10.481 52.37,12.274 L52.37,12.274 Z" id="Fill-1" fill="#1D1837"></path>
            <path d="M119.971,20.376 C119.971,31.532 110.928,40.576 99.772,40.576 C88.617,40.576 79.573,31.532 79.573,20.376 C79.573,9.221 88.617,0.177 99.772,0.177 C110.928,0.177 119.971,9.221 119.971,20.376" id="Fill-2" fill="#FFFFFE"></path>
            <path d="M98.417,15.058 L98.417,25.527 L95.414,25.527 L95.414,24.819 C95.414,24.633 95.436,24.39 95.478,24.09 C94.692,25.22 93.633,25.784 92.303,25.784 C91.202,25.784 90.294,25.377 89.579,24.561 C88.864,23.746 88.506,22.652 88.506,21.279 L88.506,15.058 L91.531,15.058 L91.531,21.108 C91.531,21.809 91.717,22.352 92.089,22.738 C92.461,23.124 92.918,23.317 93.462,23.317 C93.948,23.317 94.388,23.131 94.781,22.76 C95.174,22.388 95.385,21.866 95.414,21.193 L95.414,15.058 L98.417,15.058" id="Fill-3" fill="#468ABD"></path>
            <path d="M106.011,23.081 C106.754,23.081 107.33,22.816 107.738,22.287 C108.146,21.758 108.35,21.093 108.35,20.292 C108.35,19.477 108.149,18.809 107.749,18.286 C107.348,17.764 106.769,17.504 106.011,17.504 C105.325,17.504 104.767,17.761 104.338,18.276 C103.909,18.791 103.694,19.456 103.694,20.271 C103.694,21.015 103.912,21.669 104.348,22.234 C104.785,22.799 105.339,23.081 106.011,23.081 Z M103.63,30.89 L100.734,30.89 L100.734,15.058 L103.737,15.058 L103.737,16.109 C104.552,15.251 105.567,14.822 106.784,14.822 C108.171,14.822 109.275,15.359 110.098,16.431 C110.92,17.504 111.331,18.777 111.331,20.249 C111.331,21.751 110.927,23.042 110.119,24.122 C109.311,25.201 108.206,25.741 106.805,25.741 C105.561,25.741 104.502,25.212 103.63,24.154 L103.63,30.89 L103.63,30.89 Z" id="Fill-4" fill="#468ABD"></path>
        </g>
    </g>
</svg>