<?xml version="1.0" encoding="UTF-8"?>
<svg width="300px" height="119px" viewBox="0 0 300 119" version="1.1" xmlns="http://www.w3.org/2000/svg" xmlns:xlink="http://www.w3.org/1999/xlink">
    <!-- Generator: Sketch 54.1 (76490) - https://sketchapp.com -->
    <title>goodup</title>
    <desc>Created with Sketch.</desc>
    <g id="Page-1" stroke="none" stroke-width="1" fill="none" fill-rule="evenodd">
        <g id="goodup" fill-rule="nonzero">
            <path d="M28.6503722,60.7712159 C34.7665012,60.7712159 38.7707196,57.3230769 38.7707196,50.9851117 C38.7707196,44.5347395 34.7665012,40.8632754 28.6503722,40.8632754 C22.4218362,40.8632754 18.4183623,44.6449132 18.4183623,50.9851117 C18.4183623,57.4347395 22.7560794,60.7712159 28.6503722,60.7712159 Z M14.6367246,94.4694789 C11.6344913,100.141191 15.3044665,105.701985 28.6503722,105.701985 C48.2240695,105.701985 47.6672457,92.1342432 37.4352357,92.1342432 C31.4307692,92.1342432 25.4248139,94.6913151 17.5287841,94.6913151 C16.5275434,94.6913151 15.5263027,94.580397 14.6367246,94.4694789 Z M38.9925558,30.2992556 L45.8880893,22.4024814 L55.0079404,30.9655087 L48.5568238,37.4158809 C51.6707196,41.1975186 53.4513648,45.8687345 53.4513648,50.9851117 C53.4513648,64.5528536 42.3297767,73.5610422 28.6503722,73.5610422 C25.4248139,73.5610422 22.6444169,73.2275434 19.9756824,72.5598015 C15.192804,76.5640199 14.7483871,81.457072 22.0883375,81.457072 C27.2039702,81.457072 30.5411911,79.3444169 37.9920596,79.3444169 C66.3513648,79.3444169 66.1295285,118.936228 28.6503722,118.936228 C0.512903226,118.936228 -5.27121588,100.69727 4.29454094,88.1307692 C0.289578164,81.9022333 1.95856079,72.3379653 9.4101737,66.5538462 C5.74019851,62.6620347 3.73771712,57.3230769 3.73771712,50.9851117 C3.73771712,37.4158809 14.9702233,28.2967742 28.6503722,28.2967742 C32.3203474,28.2967742 35.87866,28.9637717 38.9925558,30.2992556 L38.9925558,30.2992556 Z" id="Fill-1" fill="#1D1837"></path>
            <path d="M99.2151365,56.4334988 C99.2151365,48.2047146 93.9885856,42.0870968 86.0918114,42.0870968 C78.0841191,42.0870968 72.8575682,48.2047146 72.8575682,56.4334988 C72.8575682,64.7746898 78.3066998,70.8915633 86.0918114,70.8915633 C93.9885856,70.8915633 99.2151365,64.7746898 99.2151365,56.4334988 Z M57.7325062,56.4334988 C57.7325062,40.3079404 70.1888337,28.1851117 86.0918114,28.1851117 C101.995533,28.1851117 114.451117,40.3079404 114.451117,56.4334988 C114.451117,72.5598015 101.995533,84.6826303 86.0918114,84.6826303 C70.1888337,84.6826303 57.7325062,72.5598015 57.7325062,56.4334988 L57.7325062,56.4334988 Z" id="Fill-2" fill="#1D1837"></path>
            <path d="M160.338462,56.4334988 C160.338462,48.2047146 155.111166,42.0870968 147.214392,42.0870968 C139.207444,42.0870968 133.980149,48.2047146 133.980149,56.4334988 C133.980149,64.7746898 139.42928,70.8915633 147.214392,70.8915633 C155.111166,70.8915633 160.338462,64.7746898 160.338462,56.4334988 Z M118.855087,56.4334988 C118.855087,40.3079404 131.311414,28.1851117 147.214392,28.1851117 C163.118859,28.1851117 175.575186,40.3079404 175.575186,56.4334988 C175.575186,72.5598015 163.118859,84.6826303 147.214392,84.6826303 C131.311414,84.6826303 118.855087,72.5598015 118.855087,56.4334988 L118.855087,56.4334988 Z" id="Fill-3" fill="#1D1837"></path>
            <path d="M219.873945,56.4334988 C219.873945,48.0930521 215.091811,42.0870968 207.862779,42.0870968 C199.744913,42.0870968 195.73995,48.5382134 195.73995,56.5451613 C195.73995,64.4411911 199.855087,71.0032258 207.862779,71.0032258 C214.980149,71.0032258 219.873945,63.8851117 219.873945,56.4334988 Z M220.207444,83.6813896 L220.207444,76.5640199 C215.869727,81.6789082 210.087097,84.7935484 203.748387,84.7935484 C188.511663,84.7935484 180.28139,71.0032258 180.28139,56.3225806 C180.28139,41.8645161 188.845161,28.1851117 203.859305,28.1851117 C209.865261,28.1851117 215.426055,30.4094293 219.651365,34.8588089 L219.651365,0.270967742 L235.221588,0.270967742 L235.221588,83.6813896 L220.207444,83.6813896 L220.207444,83.6813896 Z" id="Fill-4" fill="#1D1837"></path>
            <path d="M299.687345,28.401737 C299.687345,43.8699752 287.147643,56.4096774 271.680149,56.4096774 C256.211911,56.4096774 243.672208,43.8699752 243.672208,28.401737 C243.672208,12.9342432 256.211911,0.394540943 271.680149,0.394540943 C287.147643,0.394540943 299.687345,12.9342432 299.687345,28.401737" id="Fill-5" fill="#468ABD"></path>
            <path d="M269.800496,21.0275434 L269.800496,35.542928 L265.636973,35.542928 L265.636973,34.5617866 C265.636973,34.3042184 265.666749,33.9662531 265.725558,33.5508685 C264.634988,35.1171216 263.167742,35.9002481 261.323821,35.9002481 C259.796278,35.9002481 258.537469,35.3352357 257.545906,34.2044665 C256.554342,33.0744417 256.058561,31.5573201 256.058561,29.6538462 L256.058561,21.0275434 L260.252605,21.0275434 L260.252605,29.4156328 C260.252605,30.3878412 260.510174,31.1411911 261.026799,31.6764268 C261.541935,32.2116625 262.176179,32.4789082 262.929529,32.4789082 C263.60397,32.4789082 264.213648,32.2220844 264.759305,31.7062035 C265.304218,31.191067 265.596774,30.4674938 265.636973,29.5347395 L265.636973,21.0275434 L269.800496,21.0275434" id="Fill-6" fill="#FFFFFE"></path>
            <path d="M280.330273,32.1521092 C281.36129,32.1521092 282.16005,31.7851117 282.725062,31.051861 C283.290074,30.317866 283.572953,29.3955335 283.572953,28.2856079 C283.572953,27.1548387 283.294541,26.2280397 282.739206,25.5037221 C282.184615,24.7801489 281.38139,24.4191067 280.330273,24.4191067 C279.378908,24.4191067 278.605459,24.7756824 278.01067,25.4895782 C277.415136,26.2034739 277.118114,27.125062 277.118114,28.2558313 C277.118114,29.2868486 277.420347,30.1942928 278.024814,30.9774194 C278.630025,31.7605459 279.398263,32.1521092 280.330273,32.1521092 Z M277.028784,42.9796526 L273.0134,42.9796526 L273.0134,21.0275434 L277.176923,21.0275434 L277.176923,22.4851117 C278.307692,21.2947891 279.715385,20.7007444 281.401489,20.7007444 C283.324318,20.7007444 284.856328,21.4444169 285.996774,22.9317618 C287.137221,24.4191067 287.707444,26.1841191 287.707444,28.2260546 C287.707444,30.3081886 287.146898,32.0977667 286.026551,33.5947891 C284.906203,35.0925558 283.374194,35.8406948 281.430521,35.8406948 C279.705707,35.8406948 278.237717,35.1074442 277.028784,33.6394541 L277.028784,42.9796526 L277.028784,42.9796526 Z" id="Fill-7" fill="#FFFFFE"></path>
        </g>
    </g>
</svg>