<?xml version="1.0" encoding="UTF-8"?>
<svg width="403px" height="160px" viewBox="0 0 403 160" version="1.1" xmlns="http://www.w3.org/2000/svg" xmlns:xlink="http://www.w3.org/1999/xlink">
    <!-- Generator: Sketch 46.2 (44496) - http://www.bohemiancoding.com/sketch -->
    <title>goodup</title>
    <defs></defs>
    <g id="Page-1" stroke="none" stroke-width="1" fill="none" fill-rule="evenodd">
        <g id="GoodUp_Logo-FC" transform="translate(0.000000, -56.000000)">
            <path d="M38.487,137.636 C46.703,137.636 52.082,133.004 52.082,124.49 C52.082,115.825 46.703,110.893 38.487,110.893 C30.12,110.893 24.742,115.973 24.742,124.49 C24.742,133.154 30.569,137.636 38.487,137.636 Z M19.662,182.904 C15.629,190.523 20.559,197.993 38.487,197.993 C64.781,197.993 64.033,179.767 50.288,179.767 C42.222,179.767 34.154,183.202 23.547,183.202 C22.202,183.202 20.857,183.053 19.662,182.904 Z M52.38,96.702 L61.643,86.094 L73.894,97.597 L65.228,106.262 C69.411,111.342 71.803,117.617 71.803,124.49 C71.803,142.716 56.863,154.817 38.487,154.817 C34.154,154.817 30.419,154.369 26.834,153.472 C20.409,158.851 19.812,165.424 29.672,165.424 C36.544,165.424 41.027,162.586 51.036,162.586 C89.132,162.586 88.834,215.771 38.487,215.771 C0.689,215.771 -7.081,191.27 5.769,174.389 C0.389,166.022 2.631,153.174 12.641,145.404 C7.711,140.176 5.021,133.004 5.021,124.49 C5.021,106.262 20.11,94.012 38.487,94.012 C43.417,94.012 48.197,94.908 52.38,96.702 L52.38,96.702 Z" id="Fill-1" fill="#1D1837"></path>
            <path d="M133.279,131.809 C133.279,120.755 126.258,112.537 115.65,112.537 C104.893,112.537 97.872,120.755 97.872,131.809 C97.872,143.014 105.192,151.231 115.65,151.231 C126.258,151.231 133.279,143.014 133.279,131.809 Z M77.554,131.809 C77.554,110.147 94.287,93.862 115.65,93.862 C137.014,93.862 153.746,110.147 153.746,131.809 C153.746,153.472 137.014,169.757 115.65,169.757 C94.287,169.757 77.554,153.472 77.554,131.809 L77.554,131.809 Z" id="Fill-2" fill="#1D1837"></path>
            <path d="M215.388,131.809 C215.388,120.755 208.366,112.537 197.758,112.537 C187.002,112.537 179.98,120.755 179.98,131.809 C179.98,143.014 187.3,151.231 197.758,151.231 C208.366,151.231 215.388,143.014 215.388,131.809 Z M159.662,131.809 C159.662,110.147 176.395,93.862 197.758,93.862 C219.123,93.862 235.856,110.147 235.856,131.809 C235.856,153.472 219.123,169.757 197.758,169.757 C176.395,169.757 159.662,153.472 159.662,131.809 L159.662,131.809 Z" id="Fill-3" fill="#1D1837"></path>
            <path d="M295.364,131.809 C295.364,120.605 288.94,112.537 279.229,112.537 C268.324,112.537 262.944,121.203 262.944,131.959 C262.944,142.566 268.472,151.381 279.229,151.381 C288.79,151.381 295.364,141.819 295.364,131.809 Z M295.812,168.412 L295.812,158.851 C289.985,165.722 282.217,169.906 273.702,169.906 C253.234,169.906 242.178,151.381 242.178,131.66 C242.178,112.238 253.682,93.862 273.851,93.862 C281.919,93.862 289.389,96.85 295.065,102.827 L295.065,56.364 L315.981,56.364 L315.981,168.412 L295.812,168.412 L295.812,168.412 Z" id="Fill-4" fill="#1D1837"></path>
            <path d="M402.58,94.153 C402.58,114.932 385.735,131.777 364.957,131.777 C344.178,131.777 327.333,114.932 327.333,94.153 C327.333,73.375 344.178,56.53 364.957,56.53 C385.735,56.53 402.58,73.375 402.58,94.153" id="Fill-5" fill="#468ABD"></path>
            <path d="M362.432,84.247 L362.432,103.746 L356.839,103.746 L356.839,102.428 C356.839,102.082 356.879,101.628 356.958,101.07 C355.493,103.174 353.522,104.226 351.045,104.226 C348.993,104.226 347.302,103.467 345.97,101.948 C344.638,100.43 343.972,98.392 343.972,95.835 L343.972,84.247 L349.606,84.247 L349.606,95.515 C349.606,96.821 349.952,97.833 350.646,98.552 C351.338,99.271 352.19,99.63 353.202,99.63 C354.108,99.63 354.927,99.285 355.66,98.592 C356.392,97.9 356.785,96.928 356.839,95.675 L356.839,84.247 L362.432,84.247" id="Fill-6" fill="#FFFFFE"></path>
            <path d="M376.577,99.191 C377.962,99.191 379.035,98.698 379.794,97.713 C380.553,96.727 380.933,95.488 380.933,93.997 C380.933,92.478 380.559,91.233 379.813,90.26 C379.068,89.288 377.989,88.803 376.577,88.803 C375.299,88.803 374.26,89.282 373.461,90.241 C372.661,91.2 372.262,92.438 372.262,93.957 C372.262,95.342 372.668,96.561 373.48,97.613 C374.293,98.665 375.325,99.191 376.577,99.191 Z M372.142,113.736 L366.748,113.736 L366.748,84.247 L372.341,84.247 L372.341,86.205 C373.86,84.606 375.751,83.808 378.016,83.808 C380.599,83.808 382.657,84.807 384.189,86.805 C385.721,88.803 386.487,91.174 386.487,93.917 C386.487,96.714 385.734,99.118 384.229,101.129 C382.724,103.141 380.666,104.146 378.055,104.146 C375.738,104.146 373.766,103.161 372.142,101.189 L372.142,113.736 L372.142,113.736 Z" id="Fill-7" fill="#FFFFFE"></path>
        </g>
    </g>
</svg>